<?xml version="1.0" standalone="no"?>
<!DOCTYPE svg PUBLIC "-//W3C//DTD SVG 20010904//EN"
 "http://www.w3.org/TR/2001/REC-SVG-20010904/DTD/svg10.dtd">
<svg version="1.0" xmlns="http://www.w3.org/2000/svg"
 width="200.000000pt" height="200.000000pt" viewBox="0 0 200.000000 200.000000"
 preserveAspectRatio="xMidYMid meet">

<g transform="translate(0.000000,200.000000) scale(0.100000,-0.100000)"
fill="#ffffff" stroke="none">
<path d="M835 1993 c-162 -15 -336 -62 -456 -124 -95 -49 -151 -97 -187 -157
l-27 -47 0 -645 c0 -731 -7 -671 85 -760 88 -85 261 -159 461 -196 130 -25
447 -25 574 -1 153 29 150 27 153 76 3 37 1 43 -13 37 -9 -3 -62 -16 -118 -28
-149 -32 -466 -32 -614 0 -186 40 -311 95 -387 169 -56 54 -66 86 -66 204 l0
101 48 -35 c101 -74 251 -132 426 -164 66 -13 147 -17 299 -18 l209 0 24 30
c55 67 55 67 -38 58 -139 -14 -393 -8 -493 11 -185 35 -331 97 -409 173 -57
56 -66 85 -66 223 l0 120 48 -34 c153 -109 369 -171 642 -183 314 -13 602 54
783 183 l47 34 0 -86 c0 -89 5 -102 72 -179 5 -5 8 192 6 450 l-3 460 -27 46
c-102 173 -446 293 -825 287 -59 -1 -126 -3 -148 -5z m477 -103 c306 -64 480
-194 439 -329 -55 -186 -521 -320 -936 -270 -276 33 -469 115 -550 234 -91
134 81 290 396 360 127 28 207 34 384 30 120 -3 199 -10 267 -25z m-917 -568
c322 -160 891 -161 1210 0 33 16 81 45 108 64 l47 34 0 -120 c0 -140 -9 -169
-70 -228 -146 -140 -540 -221 -875 -181 -276 33 -469 115 -550 234 -24 36 -25
45 -25 166 l0 129 48 -34 c26 -18 74 -47 107 -64z"/>
<path d="M1486 620 l-167 -220 101 0 100 0 0 -200 0 -200 140 0 140 0 0 200 0
200 100 0 100 0 -167 220 c-91 121 -169 220 -173 220 -4 0 -82 -99 -174 -220z
m268 -27 l86 -113 -60 0 -60 0 0 -200 0 -200 -60 0 -60 0 0 200 0 200 -60 0
-60 0 88 115 c48 63 90 114 94 112 3 -1 45 -53 92 -114z"/>
</g>
</svg>
