<?xml version="1.0" encoding="utf-8"?>
<svg viewBox="0 0 122.33 130.88" width="122.33" height="130.88" style="enable-background:new 0 0 109.33 122.88" xmlns="http://www.w3.org/2000/svg">
  <defs>
    <style type="text/css">.st0{fill-rule:evenodd;clip-rule:evenodd;fill:#ffffff;} .st1{fill-rule:evenodd;clip-rule:evenodd;fill:#FF0000;} .st2{fill:#FFFFFF;}</style>
  </defs>
  <g>
    <path class="st0" d="M82.28,105.33h-10.8V90.47H56.14v14.86H44.99l18.64,17.54L82.28,105.33L82.28,105.33z M102.4,33.95H83.61 c-1.98,0-4.73-1.06-6.03-2.36c-1.3-1.3-2.09-3.65-2.09-5.61V6.95l0,0H25.83c-0.16,0-0.29,0.08-0.37,0.16 c-0.14,0.09-0.18,0.21-0.18,0.38v87.73c0,0.12,0.09,0.29,0.16,0.37c0.09,0.13,0.26,0.16,0.38,0.16h12.96 c-1.03,2.16-1.79,4.49-2.23,6.91H23.7c-1.46,0-2.76-0.58-3.73-1.55c-0.96-0.96-1.54-2.26-1.54-3.73V5.32 c0-1.46,0.59-2.76,1.54-3.73c0.97-0.97,2.31-1.55,3.73-1.55h55.31C79.13,0,79.25,0,79.38,0c0.58,0,1.18,0.25,1.59,0.62h0.08 c0.09,0.05,0.13,0.09,0.21,0.16l27.27,27.6c0.46,0.46,0.8,1.09,0.8,1.8c0,0.21-0.04,0.37-0.08,0.6c0,25.22,0,41.39,0,66.61 c0,1.46-0.59,2.77-1.55,3.73c-0.97,0.96-2.27,1.55-3.73,1.55H90c-0.44-2.43-1.19-4.75-2.23-6.91h14.07c0.16,0,0.16-0.09,0.25-0.16 c0.13-0.09,0.3-0.26,0.3-0.37C102.39,71.78,102.4,57.39,102.4,33.95L102.4,33.95z M81.72,25.43V8.12l19.49,19.74H84.15 c-0.67,0-1.26-0.29-1.72-0.71C82.01,26.73,81.72,26.1,81.72,25.43L81.72,25.43L81.72,25.43z"/>
    <polygon class="st1" points="0,38.51 88.9,38.51 88.9,81.22 0,81.22 0,38.51"/>
    <path d="M 10.433 56.846 Q 11.165 56.846 11.526 56.592 Q 11.887 56.337 11.887 55.831 L 11.887 53.432 L 11.037 53.432 L 11.037 55.708 Q 11.037 55.999 10.903 56.137 Q 10.769 56.275 10.433 56.275 Q 10.094 56.275 9.964 56.13 Q 9.834 55.986 9.834 55.698 L 9.834 55.297 L 8.984 55.297 L 8.984 55.798 Q 8.984 56.335 9.347 56.59 Q 9.711 56.846 10.433 56.846 Z" transform="matrix(6.092018, 0, 0, 6.782033, -52.569134, -314.121796)" style="fill: rgb(255, 249, 249); line-height: 8.02119px; white-space: pre;"/>
    <path d="M 13.851 56.836 Q 14.728 56.836 15.041 56.524 Q 15.355 56.212 15.355 55.768 Q 15.355 55.337 15.088 55.16 Q 14.821 54.984 14.099 54.836 Q 13.663 54.746 13.406 54.664 Q 13.149 54.583 13.149 54.347 Q 13.149 54.172 13.334 54.075 Q 13.52 53.978 13.826 53.978 Q 14.116 53.978 14.307 54.093 Q 14.497 54.207 14.497 54.63 L 15.35 54.63 Q 15.35 54.069 15.03 53.737 Q 14.711 53.404 13.836 53.404 Q 12.968 53.404 12.646 53.71 Q 12.324 54.016 12.324 54.445 Q 12.324 54.878 12.597 55.069 Q 12.871 55.259 13.57 55.41 Q 14.011 55.498 14.263 55.58 Q 14.515 55.663 14.515 55.886 Q 14.515 56.077 14.331 56.169 Q 14.147 56.262 13.846 56.262 Q 13.542 56.262 13.359 56.145 Q 13.176 56.029 13.176 55.595 L 12.322 55.595 Q 12.322 56.189 12.638 56.513 Q 12.953 56.836 13.851 56.836 Z" transform="matrix(6.092018, 0, 0, 6.782033, -52.569134, -314.121796)" style="fill: rgb(255, 249, 249); line-height: 8.02119px; white-space: pre;"/>
    <path d="M 17.329 56.844 Q 18.229 56.844 18.587 56.41 Q 18.944 55.976 18.944 55.124 Q 18.944 54.274 18.587 53.839 Q 18.229 53.404 17.329 53.404 Q 16.432 53.404 16.074 53.839 Q 15.715 54.274 15.715 55.124 Q 15.715 55.976 16.074 56.41 Q 16.432 56.844 17.329 56.844 Z M 17.329 56.265 Q 16.984 56.265 16.775 56.068 Q 16.567 55.871 16.567 55.124 Q 16.567 54.367 16.775 54.175 Q 16.984 53.984 17.329 53.984 Q 17.675 53.984 17.885 54.175 Q 18.094 54.367 18.094 55.124 Q 18.094 55.871 17.885 56.068 Q 17.675 56.265 17.329 56.265 Z" transform="matrix(6.092018, 0, 0, 6.782033, -52.569134, -314.121796)" style="fill: rgb(255, 249, 249); line-height: 8.02119px; white-space: pre;"/>
    <path d="M 19.307 56.816 L 20.157 56.816 L 20.157 53.826 L 20.054 53.826 L 21.387 56.816 L 22.751 56.816 L 22.751 53.432 L 21.901 53.432 L 21.894 56.415 L 22.017 56.415 L 20.683 53.432 L 19.307 53.432 Z" transform="matrix(6.092018, 0, 0, 6.782033, -52.569134, -314.121796)" style="fill: rgb(255, 249, 249); line-height: 8.02119px; white-space: pre;"/>
    <text style="fill: rgb(51, 51, 51); font-family: Arial, sans-serif; font-size: 6.1px; white-space: pre;" x="64.208" y="9.711"> </text>
  </g>
</svg>