<svg width="74" height="72" viewBox="0 0 74 72" fill="none" xmlns="http://www.w3.org/2000/svg">
<path d="M30.4961 6.75L30.1348 8.57812L28.7617 15.2578C26.5576 16.1016 24.5703 17.2881 22.7637 18.7031L16.043 16.4531L14.2363 15.8906L13.2969 17.5078L8.67188 25.2422L7.73242 26.8594L9.10547 28.0547L14.3086 32.4844C14.1189 33.6357 13.875 34.7871 13.875 36C13.875 37.2129 14.1189 38.3643 14.3086 39.5156L9.10547 43.9453L7.73242 45.1406L8.67188 46.7578L13.2969 54.4922L14.2363 56.1094L16.043 55.5469L22.7637 53.2969C24.5703 54.7119 26.5576 55.8984 28.7617 56.7422L30.1348 63.4219L30.4961 65.25H43.5039L43.8652 63.4219L45.2383 56.7422C47.4424 55.8984 49.4297 54.7119 51.2363 53.2969L57.957 55.5469L59.7637 56.1094L60.7031 54.4922L65.3281 46.7578L66.2676 45.1406L64.8945 43.9453L59.6914 39.5156C59.8811 38.3643 60.125 37.2129 60.125 36C60.125 34.7871 59.8811 33.6357 59.6914 32.4844L64.8945 28.0547L66.2676 26.8594L65.3281 25.2422L60.7031 17.5078L59.7637 15.8906L57.957 16.4531L51.2363 18.7031C49.4297 17.2881 47.4424 16.1016 45.2383 15.2578L43.8652 8.57812L43.5039 6.75H30.4961ZM34.2539 11.25H39.7461L40.9023 17.0859L41.1914 18.4219L42.4922 18.8438C45.1208 19.6436 47.5056 20.9971 49.502 22.7812L50.5137 23.6953L51.8145 23.2734L57.668 21.3047L60.4141 25.875L55.7891 29.8828L54.7051 30.7266L55.0664 32.0625C55.3645 33.3457 55.5 34.6553 55.5 36C55.5 37.3447 55.3645 38.6543 55.0664 39.9375L54.7773 41.2734L55.7891 42.1172L60.4141 46.125L57.668 50.6953L51.8145 48.7266L50.5137 48.3047L49.502 49.2188C47.5056 51.0029 45.1208 52.3564 42.4922 53.1562L41.1914 53.5781L40.9023 54.9141L39.7461 60.75H34.2539L33.0977 54.9141L32.8086 53.5781L31.5078 53.1562C28.8792 52.3564 26.4944 51.0029 24.498 49.2188L23.4863 48.3047L22.1855 48.7266L16.332 50.6953L13.5859 46.125L18.2109 42.1172L19.2949 41.2734L18.9336 39.9375C18.6355 38.6543 18.5 37.3447 18.5 36C18.5 34.6553 18.6355 33.3457 18.9336 32.0625L19.2949 30.7266L18.2109 29.8828L13.5859 25.875L16.332 21.3047L22.1855 23.2734L23.4863 23.6953L24.498 22.7812C26.4944 20.9971 28.8792 19.6436 31.5078 18.8438L32.8086 18.4219L33.0977 17.0859L34.2539 11.25ZM37 24.75C30.6406 24.75 25.4375 29.8125 25.4375 36C25.4375 42.1875 30.6406 47.25 37 47.25C43.3594 47.25 48.5625 42.1875 48.5625 36C48.5625 29.8125 43.3594 24.75 37 24.75ZM37 29.25C40.8572 29.25 43.9375 32.2471 43.9375 36C43.9375 39.7529 40.8572 42.75 37 42.75C33.1428 42.75 30.0625 39.7529 30.0625 36C30.0625 32.2471 33.1428 29.25 37 29.25Z" fill="white"/>
</svg>