<svg width="13" height="11" viewBox="0 0 13 11" fill="none" xmlns="http://www.w3.org/2000/svg">
<path fill-rule="evenodd" clip-rule="evenodd" d="M4.0885 11C8.99405 11 11.6772 6.76751 11.6772 3.0975C11.6772 2.97702 11.6772 2.85721 11.6694 2.73809C12.1914 2.3455 12.6418 1.85815 13 1.30041C12.5138 1.52513 11.9971 1.67269 11.4686 1.73767C12.025 1.39043 12.4417 0.844871 12.6412 0.201164C12.1173 0.524709 11.5446 0.752816 10.9473 0.87533C9.9372 -0.242865 8.24785 -0.297015 7.1734 0.754846C6.48115 1.43307 6.1867 2.44432 6.40185 3.40887C4.2575 3.29651 2.2594 2.24194 0.9048 0.507111C0.19695 1.77625 0.559 3.39939 1.73095 4.21435C1.3065 4.20148 0.89115 4.08236 0.52 3.86711V3.90231C0.52065 5.22424 1.4157 6.36274 2.6598 6.62469C2.2672 6.73638 1.8551 6.75262 1.456 6.67207C1.80505 7.8038 2.8067 8.57882 3.94745 8.60116C3.003 9.37415 1.83625 9.79381 0.63505 9.79246C0.42315 9.79178 0.21125 9.77892 0 9.75252C1.22005 10.5675 2.639 11 4.0885 10.998" fill="#3B43F2"/>
</svg>
